<svg xmlns="http://www.w3.org/2000/svg" viewBox="0 0 224.66 146.94"><defs><style>.cls-1{opacity:0.3;}.cls-2{fill:#f87812;}</style></defs><title>clock</title><g id="Layer_2" data-name="Layer 2"><g id="Form"><g class="cls-1"><path class="cls-2" d="M197.9,24.82l-6.61,16a1.9,1.9,0,1,1-3.51-1.46l6.6-15.94a131.15,131.15,0,0,0-46.73-9.26V31.33a1.9,1.9,0,1,1-3.8,0V14.11a131.28,131.28,0,0,0-46.73,9.26l6.61,15.94a1.91,1.91,0,1,1-3.52,1.46l-6.61-16A132,132,0,0,0,54,51.32L66.19,63.5a1.9,1.9,0,0,1-2.68,2.69L51.33,54A131.68,131.68,0,0,0,24.82,93.6l16,6.61a1.9,1.9,0,1,1-1.45,3.51l-15.94-6.6a131.2,131.2,0,0,0-9.27,46.73H31.33a1.89,1.89,0,0,1,1.9,1.9,1.87,1.87,0,0,1-.43,1.19H134.3A11.11,11.11,0,0,1,136,140L78.38,78.93a2.77,2.77,0,0,1,4-3.8L140,136.21a11.07,11.07,0,0,1,11.19.33l32.09-30.25a2.77,2.77,0,1,1,3.79,4L155,140.57a11.24,11.24,0,0,1,1.34,6.37h68.36V40.37A130.29,130.29,0,0,0,197.9,24.82Z"/><path class="cls-2" d="M145.75,0A145.74,145.74,0,0,0,0,145.75c0,.4,0,.8,0,1.19H8.38c0-.4,0-.79,0-1.19A137.38,137.38,0,0,1,224.66,33.29V23.19A145,145,0,0,0,145.75,0Z"/></g></g></g></svg>