<svg xmlns="http://www.w3.org/2000/svg" viewBox="0 0 47.05 40.43"><defs><style>.cls-1{fill:#fff;opacity:0.8;}</style></defs><title>print</title><g id="Layer_2" data-name="Layer 2"><g id="Menu"><path id="Print" class="cls-1" d="M11.86,0V11.94H35.38V0Zm-3,4.43v9.05H.75a.82.82,0,0,0-.75.77V33.69a.82.82,0,0,0,.75.77h9.6v-9H36.7v9.05h9.59a.82.82,0,0,0,.76-.77V14.25a.82.82,0,0,0-.76-.77H38.2v-9H36.7v9.05H10.35v-9ZM43.28,16.36a.77.77,0,1,1-.75.77A.83.83,0,0,1,43.28,16.36Zm0,3.08a.77.77,0,1,1-.75.77A.83.83,0,0,1,43.28,19.44ZM11.86,27V40.43H35.38V27Z"/></g></g></svg>