<svg xmlns="http://www.w3.org/2000/svg" viewBox="0 0 47.13 47.13"><defs><style>.cls-1{fill:#fff;opacity:0.8;}</style></defs><title>search</title><g id="Layer_2" data-name="Layer 2"><g id="Menu"><path id="Search" class="cls-1" d="M35.35,30.24A2.39,2.39,0,0,0,34,29.83a1.57,1.57,0,0,0-1.13.41L29,26.43a15.6,15.6,0,0,0,3.84-10.36A16.28,16.28,0,0,0,28,4.63,17.33,17.33,0,0,0,16.17,0,16.46,16.46,0,0,0,4.66,4.9,16,16,0,0,0,0,16.34,16.32,16.32,0,0,0,16.44,32.69a17.59,17.59,0,0,0,10.14-3.54L30.41,33a2,2,0,0,0,0,2.45L42.2,47.13,47.13,42Zm-9.87-4.9a12.92,12.92,0,0,1-9,3.81,12.92,12.92,0,0,1-9-3.81,12.33,12.33,0,0,1-3.84-9,11.52,11.52,0,0,1,3.56-9,13.11,13.11,0,0,1,9.32-3.81,10.94,10.94,0,0,1,8.77,3.81,12.35,12.35,0,0,1,3.83,9,7.87,7.87,0,0,1,0,.84A11.64,11.64,0,0,1,25.48,25.34Z"/></g></g></svg>